{
   "accessors" : [
      {
         "bufferView" : 2,
         "byteOffset" : 0,
         "componentType" : 5126,
         "count" : 2688,
         "max" : [ 0.2631747424602509, 0.5542271137237549, 0.3392233550548553, 1 ],
         "min" : [ 0.1904628723859787, 0.2844520807266235, 0.06575388461351395, 1 ],
         "name" : "accessor_color_m0-PolyPaper21_-82182",
         "type" : "VEC4"
      },
      {
         "bufferView" : 2,
         "byteOffset" : 43008,
         "componentType" : 5126,
         "count" : 1296,
         "max" : [ 1, 1, 1, 1 ],
         "min" : [ 1, 1, 1, 1 ],
         "name" : "accessor_color_m1-PolyGem25_-82188",
         "type" : "VEC4"
      },
      {
         "bufferView" : 2,
         "byteOffset" : 63744,
         "componentType" : 5126,
         "count" : 6312,
         "max" : [ 1, 1, 1, 1 ],
         "min" : [ 1, 1, 1, 1 ],
         "name" : "accessor_color_m2-PolyGlass24_-82194",
         "type" : "VEC4"
      },
      {
         "bufferView" : 0,
         "byteOffset" : 0,
         "componentType" : 5123,
         "count" : 4032,
         "max" : [ 2687 ],
         "min" : [ 0 ],
         "name" : "accessor_indices_0_m0-PolyPaper21_-82182",
         "type" : "SCALAR"
      },
      {
         "bufferView" : 0,
         "byteOffset" : 8064,
         "componentType" : 5123,
         "count" : 1944,
         "max" : [ 1295 ],
         "min" : [ 0 ],
         "name" : "accessor_indices_0_m1-PolyGem25_-82188",
         "type" : "SCALAR"
      },
      {
         "bufferView" : 0,
         "byteOffset" : 11952,
         "componentType" : 5123,
         "count" : 9432,
         "max" : [ 6311 ],
         "min" : [ 0 ],
         "name" : "accessor_indices_0_m2-PolyGlass24_-82194",
         "type" : "SCALAR"
      },
      {
         "bufferView" : 1,
         "byteOffset" : 32256,
         "componentType" : 5126,
         "count" : 2688,
         "max" : [ 0.9994025, 0.9999459000000001, 0.9999536999999999 ],
         "min" : [ -0.9994025, -0.9999459000000001, -0.9999536999999999 ],
         "name" : "accessor_normal_m0-PolyPaper21_-82182",
         "type" : "VEC3"
      },
      {
         "bufferView" : 1,
         "byteOffset" : 80064,
         "componentType" : 5126,
         "count" : 1296,
         "max" : [ 1, 1, 1 ],
         "min" : [ -1, -1, -1 ],
         "name" : "accessor_normal_m1-PolyGem25_-82188",
         "type" : "VEC3"
      },
      {
         "bufferView" : 1,
         "byteOffset" : 171360,
         "componentType" : 5126,
         "count" : 6312,
         "max" : [ 0.9979063, 0.9659261, 0.9837435 ],
         "min" : [ -0.9979064, -0.9659261, -0.9837435 ],
         "name" : "accessor_normal_m2-PolyGlass24_-82194",
         "type" : "VEC3"
      },
      {
         "bufferView" : 1,
         "byteOffset" : 0,
         "componentType" : 5126,
         "count" : 2688,
         "max" : [ 2.32179, 3.47982, 2.013084 ],
         "min" : [ -2.628211, -1.081112, -2.830107 ],
         "name" : "accessor_position_m0-PolyPaper21_-82182",
         "type" : "VEC3"
      },
      {
         "bufferView" : 1,
         "byteOffset" : 64512,
         "componentType" : 5126,
         "count" : 1296,
         "max" : [ 1.809785, 3.492114, 1.710095 ],
         "min" : [ -1.697549, 1.174313, -1.566235 ],
         "name" : "accessor_position_m1-PolyGem25_-82188",
         "type" : "VEC3"
      },
      {
         "bufferView" : 1,
         "byteOffset" : 95616,
         "componentType" : 5126,
         "count" : 6312,
         "max" : [ 1.668888, 2.789871, 0.1550754 ],
         "min" : [ -0.9345518, 1.447571, -1.466897 ],
         "name" : "accessor_position_m2-PolyGlass24_-82194",
         "type" : "VEC3"
      }
   ],
   "asset" : {
      "copyright" : "Unknown",
      "extras" : {
         "GOOGLE_processor_version" : 294144208
      },
      "generator" : "glTF 1-to-2 Upgrader for Google Blocks",
      "version" : "2.0"
   },
   "bufferViews" : [
      {
         "buffer" : 0,
         "byteLength" : 30816,
         "byteOffset" : 0,
         "name" : "ushortBufferView",
         "target" : 34963
      },
      {
         "buffer" : 0,
         "byteLength" : 247104,
         "byteOffset" : 30816,
         "byteStride" : 12,
         "name" : "vec3BufferView",
         "target" : 34962
      },
      {
         "buffer" : 0,
         "byteLength" : 164736,
         "byteOffset" : 277920,
         "byteStride" : 16,
         "name" : "vec4BufferView",
         "target" : 34962
      }
   ],
   "buffers" : [
      {
         "byteLength" : 442656,
         "name" : "model",
         "uri" : "model.bin"
      }
   ],
   "cameras" : [
      {
         "perspective" : {
            "yfov" : 0.7853981633974483,
            "znear" : 0.1000000014901161
         },
         "type" : "perspective"
      }
   ],
   "extensions" : {
      "KHR_lights_punctual" : {
         "lights" : [
            {
               "color" : [ 1, 0.9333333333333333, 0.8666666666666667 ],
               "intensity" : 0.25,
               "name" : "headLight",
               "type" : "directional"
            },
            {
               "color" : [ 1, 0.9333333333333333, 0.8666666666666667 ],
               "intensity" : 0.324999988079071,
               "name" : "keyLight",
               "type" : "directional"
            }
         ]
      }
   },
   "extensionsUsed" : [ "GOOGLE_backgrounds", "GOOGLE_camera_settings", "KHR_lights_punctual" ],
   "extras" : {
      "GOOGLE_initial_camera_motion" : {
         "motionPath" : "FULL_ROTATION"
      },
      "GOOGLE_lighting_rig" : {
         "disableShadows" : false
      }
   },
   "materials" : [
      {
         "alphaMode" : "OPAQUE",
         "doubleSided" : false,
         "name" : "BlocksPaper",
         "pbrMetallicRoughness" : {
            "baseColorFactor" : [ 1, 1, 1, 1 ],
            "metallicFactor" : 0,
            "roughnessFactor" : 0.6
         }
      },
      {
         "alphaMode" : "BLEND",
         "doubleSided" : false,
         "name" : "BlocksGlass",
         "pbrMetallicRoughness" : {
            "baseColorFactor" : [ 0.2, 0.2, 1, 0.3 ],
            "metallicFactor" : 1,
            "roughnessFactor" : 0.4
         }
      },
      {
         "alphaMode" : "OPAQUE",
         "doubleSided" : true,
         "name" : "BlocksGem",
         "pbrMetallicRoughness" : {
            "baseColorFactor" : [ 1, 0.4, 1, 1 ],
            "metallicFactor" : 0,
            "roughnessFactor" : 0.1
         }
      }
   ],
   "meshes" : [
      {
         "name" : "mesh_m0-PolyPaper21_-82182",
         "primitives" : [
            {
               "attributes" : {
                  "COLOR_0" : 0,
                  "NORMAL" : 6,
                  "POSITION" : 9
               },
               "indices" : 3,
               "material" : 0,
               "mode" : 4
            }
         ]
      },
      {
         "name" : "mesh_m1-PolyGem25_-82188",
         "primitives" : [
            {
               "attributes" : {
                  "COLOR_0" : 1,
                  "NORMAL" : 7,
                  "POSITION" : 10
               },
               "indices" : 4,
               "material" : 2,
               "mode" : 4
            }
         ]
      },
      {
         "name" : "mesh_m2-PolyGlass24_-82194",
         "primitives" : [
            {
               "attributes" : {
                  "COLOR_0" : 2,
                  "NORMAL" : 8,
                  "POSITION" : 11
               },
               "indices" : 5,
               "material" : 1,
               "mode" : 4
            }
         ]
      }
   ],
   "nodes" : [
      {
         "mesh" : 1,
         "name" : "node_MeshObject-173907968-PolyGem25"
      },
      {
         "mesh" : 0,
         "name" : "node_MeshObject1542329344-PolyPaper21"
      },
      {
         "mesh" : 2,
         "name" : "node_MeshObject398171136-PolyGlass24"
      },
      {
         "children" : [ 4 ]
      },
      {
         "children" : [ 5 ],
         "extras" : {
            "isTransformNode" : 1
         },
         "translation" : [ -0.09957367868895357, 0.9394132925323406, -0.3954888413939363 ]
      },
      {
         "children" : [ 1, 0, 2 ],
         "translation" : [ 0.09957367868895357, -0.9394132925323406, 0.3954888413939363 ]
      },
      {
         "camera" : 0,
         "children" : [ 7 ],
         "rotation" : [
            -0.1255950932646019,
            -0.3092540525377868,
            -0.04124335432703564,
            0.9417466693653163
         ],
         "translation" : [ -1.121098317266118, 1.407357592145755, 0.9922600615614154 ]
      },
      {
         "extensions" : {
            "KHR_lights_punctual" : {
               "light" : 0
            }
         },
         "extras" : {
            "isHeadLight" : 1
         },
         "name" : "headLightNode",
         "translation" : [ -4.916582500423862, 2.458291250211931, 2.458291250211931 ]
      },
      {
         "extensions" : {
            "KHR_lights_punctual" : {
               "light" : 1
            }
         },
         "extras" : {
            "isKeyLight" : 1
         },
         "name" : "keyLightNode",
         "rotation" : [ -0.7505326882858236, -0.3752663441429118, 0, 0.5439447166468927 ],
         "scale" : [ 0, 0, 4.965748325428101 ],
         "translation" : [ -4.918525524252565, 11.604219833168, -4.954283960252149 ]
      }
   ],
   "scene" : 0,
   "scenes" : [
      {
         "extensions" : {
            "GOOGLE_backgrounds" : {
               "color" : [ 0.9333333333333333, 0.9333333333333333, 0.9333333333333333 ]
            },
            "GOOGLE_camera_settings" : {
               "pivot" : [ -0.09950663446759744, 0.9394028609762026, -0.3954888043039917 ]
            }
         },
         "extras" : {
            "GOOGLE_camera_index" : {
               "cameraIndex" : 0,
               "nodeIndex" : 6
            },
            "GOOGLE_geometry_data" : {
               "stats" : {
                  "centroid" : [ 0.04722280117553582, 1.672723182311796, 0.01146436517595205 ],
                  "radius" : 4.916582500423862,
                  "stdev" : 1.080499987079347
               },
               "visualCenterPoint" : [ -0.09957367868895357, 0.9394132925323406, -0.3954888413939363 ]
            },
            "GOOGLE_hemi_light" : {
               "groundColor" : [ 0.9333333333333333, 0.9333333333333333, 0.9333333333333333 ]
            }
         },
         "name" : "defaultScene",
         "nodes" : [ 3, 6, 8 ]
      }
   ]
}
